<mxfile host="drawio-plugin" modified="2024-05-24T10:56:54.451Z" agent="Mozilla/5.0 (X11; Linux x86_64) AppleWebKit/537.36 (KHTML, like Gecko) Chrome/122.0.0.0 Safari/537.36" etag="10ny9Y1D439HtVRPpN4N" version="22.1.22" type="embed">
  <diagram name="페이지-1" id="MDdU6RWuoMH7VYvuv_8p">
    <mxGraphModel dx="1531" dy="1120" grid="1" gridSize="10" guides="1" tooltips="1" connect="1" arrows="1" fold="1" page="1" pageScale="1" pageWidth="1600" pageHeight="1200" math="0" shadow="0">
      <root>
        <mxCell id="0" />
        <mxCell id="1" parent="0" />
      </root>
    </mxGraphModel>
  </diagram>
</mxfile>
